<svg xmlns="http://www.w3.org/2000/svg" width="89.24" height="35.46" viewBox="0 0 89.24 35.46"><defs><style>.a{fill:#fad100;}.b,.c{fill:#001c48;}.b{stroke:rgba(0,0,0,0);}</style></defs><g transform="translate(-1824.76 -55)"><circle class="a" cx="3.5" cy="3.5" r="3.5" transform="translate(1907 55)"/><path class="b" d="M-1990,25.38a10.281,10.281,0,0,1,.509-3.5,9.242,9.242,0,0,1,1.852-2.89l8.29-8.084a5.138,5.138,0,0,0,1.436-1.975,8.211,8.211,0,0,0,.324-2.585,3.233,3.233,0,0,0-1.089-2.585,4.878,4.878,0,0,0-3.264-.941,4.878,4.878,0,0,0-3.265.941,3.291,3.291,0,0,0-1.088,2.632v4.183h-3.242v-4q0-6.58,7.456-6.58,3.891,0,5.812,1.715a6.1,6.1,0,0,1,1.921,4.669h0V24.256h0v7.393h-.972l-.928-1.382q-1.956,1.694-5.928,1.694Q-1990,31.96-1990,25.38Zm5-4.371a5.9,5.9,0,0,0-1.412,2.045,7.831,7.831,0,0,0-.347,2.585A3.124,3.124,0,0,0-1985.6,28.2a5.34,5.34,0,0,0,3.427.941,5.339,5.339,0,0,0,3.427-.941,3.2,3.2,0,0,0,1.158-2.632V13.659Z" transform="translate(3836.876 58)"/><path class="c" d="M7.99,0H4.7V-30.55H6.11l1.175,3.008a7.776,7.776,0,0,1,2.585-2.7,6.383,6.383,0,0,1,3.478-1.011q4.747,0,6.063,3.431a6.824,6.824,0,0,1,5.922-3.431q6.627,0,6.627,6.58V0H28.67V-24.675q0-3.76-3.384-3.76a5.176,5.176,0,0,0-3.642,1.6,4.47,4.47,0,0,0-1.668,3.1V0h-3.29V-24.675q0-3.76-3.384-3.76a5.293,5.293,0,0,0-3.642,1.528A4.255,4.255,0,0,0,7.99-23.876Z" transform="translate(1868 90.255)"/><path class="c" d="M19.646-5.875Q19.646.705,11.7.7T3.76-5.875V-9.87H7.05v4.183A3.18,3.18,0,0,0,8.225-3.055a5.481,5.481,0,0,0,3.478.94,5.481,5.481,0,0,0,3.478-.94,3.1,3.1,0,0,0,1.175-2.562A7.719,7.719,0,0,0,16-8.2a5.9,5.9,0,0,0-1.434-2.044L6.3-18.33a8.54,8.54,0,0,1-2-2.844,9.729,9.729,0,0,1-.54-3.5,6.135,6.135,0,0,1,1.951-4.865q1.951-1.716,5.9-1.716,7.567,0,7.567,6.58v3.995h-3.29v-4.183a3.269,3.269,0,0,0-1.1-2.632,5.007,5.007,0,0,0-3.313-.94,5.007,5.007,0,0,0-3.314.94,3.214,3.214,0,0,0-1.1,2.585,8.1,8.1,0,0,0,.329,2.585,5.138,5.138,0,0,0,1.457,1.974l8.413,8.084a9.236,9.236,0,0,1,1.88,2.891A10.132,10.132,0,0,1,19.646-5.875Z" transform="translate(1821 89.255)"/><path class="c" d="M-.1-.289H3.168L3.153,25.255H-.113Z" transform="translate(1909 65)"/></g></svg>